<svg xmlns="http://www.w3.org/2000/svg" viewBox="0 0 64 64" role="img" aria-label="Gaachuqe">
  <defs>
    <linearGradient id="bg" x1="10" x2="54" y1="8" y2="58" gradientUnits="userSpaceOnUse">
      <stop stop-color="#45c28d"/>
      <stop offset="1" stop-color="#23835c"/>
    </linearGradient>
    <filter id="shadow" x="-20%" y="-20%" width="140%" height="140%">
      <feDropShadow dx="0" dy="6" stdDeviation="5" flood-color="#0f2a20" flood-opacity=".28"/>
    </filter>
  </defs>
  <rect width="64" height="64" rx="18" fill="#f8f5ed"/>
  <rect x="8" y="8" width="48" height="48" rx="16" fill="url(#bg)" filter="url(#shadow)"/>
  <path d="M21 29h22v18H21V29Z" fill="none" stroke="#fff" stroke-width="4" stroke-linejoin="round"/>
  <path d="M18 23h28v8H18v-8Z" fill="none" stroke="#fff" stroke-width="4" stroke-linejoin="round"/>
  <path d="M32 23v24M26 23c-3.7-1.2-5.4-3.2-4.5-5.4.9-2.1 4-2.3 6-.2 1.7 1.8 2.8 3.7 4.5 5.6 1.7-1.9 2.8-3.8 4.5-5.6 2-2.1 5.1-1.9 6 .2.9 2.2-.8 4.2-4.5 5.4" fill="none" stroke="#fff" stroke-width="4" stroke-linecap="round" stroke-linejoin="round"/>
</svg>
