<svg xmlns="http://www.w3.org/2000/svg" viewBox="0 0 1600 900" role="img" aria-label="Green Georgian mountain valley">
  <defs>
    <linearGradient id="sky" x1="0" x2="0" y1="0" y2="1">
      <stop offset="0" stop-color="#153d37"/>
      <stop offset=".48" stop-color="#29463b"/>
      <stop offset="1" stop-color="#081510"/>
    </linearGradient>
    <linearGradient id="mist" x1="0" x2="1" y1="0" y2="0">
      <stop offset="0" stop-color="#d7c89a" stop-opacity=".28"/>
      <stop offset=".48" stop-color="#d7c89a" stop-opacity=".11"/>
      <stop offset="1" stop-color="#d7c89a" stop-opacity=".02"/>
    </linearGradient>
    <linearGradient id="hill" x1="0" x2="0" y1="0" y2="1">
      <stop offset="0" stop-color="#2f603e"/>
      <stop offset="1" stop-color="#0a1b12"/>
    </linearGradient>
    <filter id="blur" x="-20%" y="-20%" width="140%" height="140%">
      <feGaussianBlur stdDeviation="18"/>
    </filter>
  </defs>
  <rect width="1600" height="900" fill="url(#sky)"/>
  <circle cx="260" cy="210" r="210" fill="#e7d495" opacity=".2" filter="url(#blur)"/>
  <path d="M0 360c160-80 250-70 390-120 170-62 290-18 430 18 124 31 220-20 350-34 165-19 296 64 430 41v635H0z" fill="#0b2219" opacity=".7"/>
  <path d="M0 444c186-95 310-73 505-126 191-52 324 28 474 34 185 8 335-78 621-22v570H0z" fill="#143321" opacity=".78"/>
  <path d="M0 540c136-53 260-29 390-74 168-58 286 17 415 34 167 22 323-35 485-54 128-15 208 4 310 38v416H0z" fill="url(#hill)" opacity=".9"/>
  <path d="M0 676c106-39 211-17 318-42 150-36 260 28 406 41 160 15 258-34 407-30 196 6 302 70 469 49v206H0z" fill="#07110d"/>
  <path d="M0 310h1600v230H0z" fill="url(#mist)"/>
  <g opacity=".16" fill="#e9efe6">
    <rect x="112" y="660" width="42" height="32" rx="3"/>
    <rect x="170" y="632" width="55" height="44" rx="4"/>
    <rect x="252" y="684" width="38" height="28" rx="3"/>
    <rect x="1262" y="628" width="60" height="46" rx="4"/>
    <rect x="1340" y="660" width="44" height="32" rx="3"/>
  </g>
</svg>
